<svg width="62" height="34" viewBox="0 0 62 34" fill="none" xmlns="http://www.w3.org/2000/svg">
<g filter="url(#filter0_i)">
<path d="M5.83336 9.948C6.80437 5.31672 10.8886 2 15.6206 2L48.3468 2C53.3147 2 57.5294 5.64704 58.2431 10.5634L59.8399 21.5634C60.7154 27.5948 56.0382 33 49.9436 33L13.3143 33C6.96595 33 2.22441 27.1612 3.52709 20.948L5.83336 9.948Z" fill="#D00606"/>
</g>
<path d="M27.3651 5.4699L21.5232 5.49144L21.5217 5.10217L27.3637 5.08063L27.3651 5.4699ZM27.3691 6.55226L21.5271 6.57381L21.5257 6.17504L27.3676 6.1535L27.3691 6.55226ZM29.0006 4.353L19.9483 4.38639L19.9591 7.30118L29.0113 7.26779L29.0006 4.353ZM28.2351 9.72975C27.9883 10.0725 27.6726 10.3869 27.3016 10.6637C26.9286 10.3897 26.6105 10.0775 26.375 9.73661L28.2351 9.72975ZM20.9368 10.8865L22.728 10.8799L22.7293 11.2502C22.1232 11.2904 21.5171 11.3211 20.9385 11.3517L20.9368 10.8865ZM20.9325 9.70921L22.7236 9.7026L22.7251 10.1014L20.9339 10.108L20.9325 9.70921ZM22.7193 8.53479L22.7207 8.91456L20.9296 8.92117L20.9282 8.54139L22.7193 8.53479ZM29.1962 8.82422L28.9208 8.86321L24.6358 8.87902L24.639 9.74301L25.9066 9.73833L24.9978 9.91259C25.3304 10.4336 25.7593 10.9067 26.2568 11.3131C25.6792 11.6096 25.0049 11.84 24.3028 12.004L24.29 8.52899L30.6004 8.50572L30.5971 7.61324L18.3483 7.65842L18.3516 8.55089L19.4263 8.54693L19.437 11.4332C19.01 11.4633 18.5967 11.4743 18.2385 11.4946L18.3661 12.4626C19.5783 12.3822 21.1486 12.2814 22.7327 12.1712L22.7356 12.9402L24.3063 12.9344L24.3034 12.1654C24.5798 12.3922 24.8841 12.7044 25.0365 12.9222C25.8899 12.7007 26.6742 12.4035 27.3755 12.0306C28.1072 12.4172 28.9625 12.7084 29.9415 12.9041C30.161 12.6375 30.5866 12.2276 30.9027 12.0176C29.9928 11.869 29.1652 11.6347 28.4752 11.3239C29.2445 10.723 29.8343 9.9802 30.203 9.08635L29.1962 8.82422Z" fill="white"/>
<path d="M44.3758 7.70485L44.3715 6.53703L38.9567 6.557C39.0912 5.67351 39.1018 4.79997 39.1127 4.02138L37.3215 4.02799C37.3106 4.80658 37.3276 5.67052 37.1931 6.56351L32.1778 6.582L32.1821 7.74982L36.9218 7.73234C36.3905 9.36736 35.0874 10.9483 31.9358 11.9283C32.4189 12.1639 32.9026 12.5704 33.1656 12.8827C36.083 11.9035 37.5655 10.4169 38.3037 8.82861C39.3852 10.6571 40.9885 12.0374 43.4854 12.8352C43.746 12.5114 44.2814 12.0062 44.6939 11.7673C42.1147 11.0553 40.4421 9.57079 39.5259 7.72273L44.3758 7.70485Z" fill="white"/>
<path d="M22.4824 20.2399L21.3119 20.4341L21.3067 19.0099L22.6294 19.005L22.6255 17.9606L21.3028 17.9655L21.2962 16.1711L19.7255 16.1769L19.7321 17.9713L18.2303 17.9769L18.2341 19.0212L19.736 19.0157L19.7422 20.7057C19.1226 20.8124 18.558 20.9 18.0622 20.9778L18.4934 22.0585L19.7463 21.8261L19.7535 23.7819C19.754 23.9148 19.6991 23.953 19.5199 23.9537C19.3546 23.9543 18.8448 23.9562 18.3488 23.9485C18.5427 24.2326 18.751 24.6686 18.8072 24.9532C19.7027 24.9499 20.3227 24.9192 20.7491 24.7372C21.1894 24.5742 21.3262 24.3078 21.3243 23.7761L21.316 21.5354L22.6929 21.274L22.4824 20.2399ZM27.5548 20.7718L27.551 19.737L28.8874 19.732L28.8913 20.7669L27.5548 20.7718ZM24.6614 20.7825L24.6575 19.7476L26.0078 19.7426L26.0116 20.7775L24.6614 20.7825ZM26.0003 17.7108L26.004 18.7172L24.6538 18.7222L24.65 17.7158L26.0003 17.7108ZM28.8837 18.7066L27.5472 18.7116L27.5435 17.7051L28.8799 17.7002L28.8837 18.7066ZM23.048 16.6963L23.0686 22.2695L24.6668 22.2636L24.6651 21.8079L26.0154 21.8029L26.0272 25.0121L27.5704 25.0064L27.5586 21.7972L28.895 21.7923L28.8967 22.2386L30.5638 22.2324L30.5433 16.6687L23.048 16.6963Z" fill="white"/>
<path d="M39.2649 16.646C40.0264 17.6401 41.0636 18.6807 42.1553 19.5502L34.7151 19.5776C35.8004 18.7191 36.761 17.6712 37.4322 16.5768L35.6673 16.232C34.8459 17.6782 33.3351 18.994 31.6158 19.7979C32.0161 19.9958 32.7205 20.449 33.0245 20.7042C33.3958 20.5034 33.767 20.2742 34.1243 20.0165L34.1267 20.6811L36.4552 20.6726C36.1848 22.0598 35.4729 23.3062 32.3616 24.0108C32.7621 24.2656 33.246 24.7291 33.4539 25.0511C37.0191 24.117 37.9086 22.4902 38.2464 20.666L40.9607 20.6559C40.844 22.6407 40.6955 23.4863 40.4207 23.6867C40.2696 23.8012 40.1181 23.8207 39.8701 23.8217C39.5256 23.8229 38.8091 23.8161 38.0512 23.7809C38.3417 24.1026 38.5639 24.5765 38.5927 24.9182C39.4057 24.9342 40.2049 24.9313 40.6731 24.8821C41.2103 24.8326 41.582 24.7363 41.9253 24.4312C42.4061 24.0307 42.5673 22.9097 42.7083 20.0418L42.708 19.9754C43.0119 20.1926 43.302 20.4005 43.5921 20.5798C43.9078 20.2558 44.5399 19.7977 44.9799 19.5587C43.4751 18.7668 41.7478 17.3964 40.8753 16.1938L39.2649 16.646Z" fill="white"/>
<defs>
<filter id="filter0_i" x="2.31055" y="1" width="57.6349" height="32" filterUnits="userSpaceOnUse" color-interpolation-filters="sRGB">
<feFlood flood-opacity="0" result="BackgroundImageFix"/>
<feBlend mode="normal" in="SourceGraphic" in2="BackgroundImageFix" result="shape"/>
<feColorMatrix in="SourceAlpha" type="matrix" values="0 0 0 0 0 0 0 0 0 0 0 0 0 0 0 0 0 0 127 0" result="hardAlpha"/>
<feOffset dx="-1" dy="-6"/>
<feGaussianBlur stdDeviation="0.5"/>
<feComposite in2="hardAlpha" operator="arithmetic" k2="-1" k3="1"/>
<feColorMatrix type="matrix" values="0 0 0 0 0.329167 0 0 0 0 0.0054861 0 0 0 0 0.0054861 0 0 0 0.66 0"/>
<feBlend mode="normal" in2="shape" result="effect1_innerShadow"/>
</filter>
</defs>
</svg>
