<svg width="61" height="33" viewBox="0 0 61 33" fill="none" xmlns="http://www.w3.org/2000/svg">
<g filter="url(#filter0_i)">
<path d="M4.95153 8.948C5.92253 4.31672 10.0067 1 14.7387 1L47.465 1C52.4329 1 56.6476 4.64704 57.3612 9.56344L58.958 20.5634C59.8335 26.5948 55.1563 32 49.0617 32L12.4325 32C6.08412 32 1.34257 26.1612 2.64525 19.948L4.95153 8.948Z" fill="#D00606"/>
</g>
<path d="M26.4833 6.4699L20.6413 6.49144L20.6399 6.10217L26.4818 6.08063L26.4833 6.4699ZM26.4872 7.55226L20.6453 7.57381L20.6438 7.17504L26.4858 7.1535L26.4872 7.55226ZM28.1188 5.353L19.0665 5.38639L19.0773 8.30118L28.1295 8.26779L28.1188 5.353ZM27.3532 10.7297C27.1065 11.0725 26.7907 11.3869 26.4197 11.6637C26.0467 11.3897 25.7287 11.0775 25.4932 10.7366L27.3532 10.7297ZM20.055 11.8865L21.8461 11.8799L21.8475 12.2502C21.2414 12.2904 20.6353 12.3211 20.0567 12.3517L20.055 11.8865ZM20.0506 10.7092L21.8418 10.7026L21.8433 11.1014L20.0521 11.108L20.0506 10.7092ZM21.8375 9.53479L21.8389 9.91456L20.0477 9.92117L20.0463 9.54139L21.8375 9.53479ZM28.3144 9.82422L28.0389 9.86321L23.7539 9.87902L23.7571 10.743L25.0247 10.7383L24.116 10.9126C24.4486 11.4336 24.8775 11.9067 25.375 12.3131C24.7974 12.6096 24.1231 12.84 23.421 13.004L23.4082 9.52899L29.7186 9.50572L29.7153 8.61324L17.4665 8.65842L17.4698 9.55089L18.5445 9.54693L18.5551 12.4332C18.1281 12.4633 17.7148 12.4743 17.3567 12.4946L17.4842 13.4626C18.6964 13.3822 20.2668 13.2814 21.8509 13.1712L21.8537 13.9402L23.4244 13.9344L23.4216 13.1654C23.698 13.3922 24.0023 13.7044 24.1546 13.9222C25.0081 13.7007 25.7924 13.4035 26.4937 13.0306C27.2254 13.4172 28.0807 13.7084 29.0597 13.9041C29.2791 13.6375 29.7048 13.2276 30.0209 13.0176C29.111 12.869 28.2834 12.6347 27.5933 12.3239C28.3627 11.723 28.9524 10.9802 29.3212 10.0864L28.3144 9.82422Z" fill="white"/>
<path d="M43.494 8.70485L43.4897 7.53703L38.0749 7.557C38.2094 6.67351 38.2199 5.79997 38.2308 5.02138L36.4397 5.02799C36.4288 5.80658 36.4457 6.67052 36.3112 7.56351L31.296 7.582L31.3003 8.74982L36.04 8.73234C35.5087 10.3674 34.2056 11.9483 31.0539 12.9283C31.537 13.1639 32.0208 13.5704 32.2837 13.8827C35.2011 12.9035 36.6837 11.4169 37.4219 9.82861C38.5033 11.6571 40.1067 13.0374 42.6035 13.8352C42.8641 13.5114 43.3996 13.0062 43.8121 12.7673C41.2329 12.0553 39.5603 10.5708 38.6441 8.72273L43.494 8.70485Z" fill="white"/>
<path d="M21.6005 21.2399L20.4301 21.4341L20.4248 20.0099L21.7475 20.005L21.7437 18.9606L20.421 18.9655L20.4144 17.1711L18.8437 17.1769L18.8503 18.9713L17.3485 18.9769L17.3523 20.0212L18.8541 20.0157L18.8604 21.7057C18.2407 21.8124 17.6761 21.9 17.1804 21.9778L17.6115 23.0585L18.8645 22.8261L18.8717 24.7819C18.8722 24.9148 18.8172 24.953 18.6381 24.9537C18.4728 24.9543 17.963 24.9562 17.4669 24.9485C17.6609 25.2326 17.8692 25.6686 17.9253 25.9532C18.8209 25.9499 19.4408 25.9192 19.8673 25.7372C20.3076 25.5742 20.4444 25.3078 20.4424 24.7761L20.4342 22.5354L21.811 22.274L21.6005 21.2399ZM26.6729 21.7718L26.6691 20.737L28.0056 20.732L28.0094 21.7669L26.6729 21.7718ZM23.7795 21.7825L23.7757 20.7476L25.126 20.7426L25.1298 21.7775L23.7795 21.7825ZM25.1185 18.7108L25.1222 19.7172L23.7719 19.7222L23.7682 18.7158L25.1185 18.7108ZM28.0018 19.7066L26.6653 19.7116L26.6616 18.7051L27.9981 18.7002L28.0018 19.7066ZM22.1662 17.6963L22.1867 23.2695L23.785 23.2636L23.7833 22.8079L25.1336 22.8029L25.1454 26.0121L26.6885 26.0064L26.6767 22.7972L28.0132 22.7923L28.0148 23.2386L29.682 23.2324L29.6615 17.6687L22.1662 17.6963Z" fill="white"/>
<path d="M38.3831 17.646C39.1446 18.6401 40.1818 19.6807 41.2735 20.5502L33.8333 20.5776C34.9186 19.7191 35.8792 18.6712 36.5503 17.5768L34.7854 17.232C33.964 18.6782 32.4533 19.994 30.734 20.7979C31.1343 20.9958 31.8386 21.449 32.1427 21.7042C32.514 21.5034 32.8851 21.2742 33.2424 21.0165L33.2449 21.6811L35.5734 21.6726C35.3029 23.0598 34.591 24.3062 31.4797 25.0108C31.8803 25.2656 32.3642 25.7291 32.5721 26.0511C36.1372 25.117 37.0268 23.4902 37.3645 21.666L40.0788 21.6559C39.9622 23.6407 39.8137 24.4863 39.5389 24.6867C39.3877 24.8012 39.2362 24.8207 38.9882 24.8217C38.6438 24.8229 37.9273 24.8161 37.1694 24.7809C37.4599 25.1026 37.6821 25.5765 37.7109 25.9182C38.5239 25.9342 39.323 25.9313 39.7913 25.8821C40.3285 25.8326 40.7001 25.7363 41.0435 25.4312C41.5242 25.0307 41.6854 23.9097 41.8264 21.0418L41.8262 20.9754C42.1301 21.1926 42.4202 21.4005 42.7102 21.5798C43.0259 21.2558 43.658 20.7977 44.0981 20.5587C42.5933 19.7668 40.866 18.3964 39.9935 17.1938L38.3831 17.646Z" fill="white"/>
<defs>
<filter id="filter0_i" x="1.42871" y="0" width="57.6349" height="32" filterUnits="userSpaceOnUse" color-interpolation-filters="sRGB">
<feFlood flood-opacity="0" result="BackgroundImageFix"/>
<feBlend mode="normal" in="SourceGraphic" in2="BackgroundImageFix" result="shape"/>
<feColorMatrix in="SourceAlpha" type="matrix" values="0 0 0 0 0 0 0 0 0 0 0 0 0 0 0 0 0 0 127 0" result="hardAlpha"/>
<feOffset dx="-1" dy="-2"/>
<feGaussianBlur stdDeviation="0.5"/>
<feComposite in2="hardAlpha" operator="arithmetic" k2="-1" k3="1"/>
<feColorMatrix type="matrix" values="0 0 0 0 0.1875 0 0 0 0 0 0 0 0 0 0 0 0 0 0.66 0"/>
<feBlend mode="normal" in2="shape" result="effect1_innerShadow"/>
</filter>
</defs>
</svg>
