<svg width="28" height="28" viewBox="0 0 28 28" fill="none" xmlns="http://www.w3.org/2000/svg">
<circle cx="14" cy="14" r="13" fill="black" stroke="#C4C4C4" stroke-width="2"/>
<g filter="url(#filter0_d)">
<path d="M20.6669 7H19.3508C19.3057 6.99995 19.261 7.00907 19.2196 7.0268C19.1781 7.04453 19.1406 7.07051 19.1095 7.10316C19.0783 7.13581 19.0541 7.17445 19.0384 7.21674C19.0226 7.25903 19.0155 7.30408 19.0177 7.34917L19.1287 9.64805C18.4831 8.8868 17.6795 8.27544 16.7739 7.8565C15.8682 7.43757 14.8821 7.22112 13.8844 7.22222C10.0908 7.22222 6.99723 10.3203 7 14.1164C7.00278 17.9186 10.0841 21 13.8844 21C15.5891 21.0024 17.2337 20.3695 18.4975 19.2247C18.5312 19.1945 18.5585 19.1577 18.5775 19.1165C18.5966 19.0754 18.6071 19.0308 18.6083 18.9855C18.6096 18.9402 18.6016 18.8951 18.5848 18.853C18.568 18.8109 18.5428 18.7726 18.5108 18.7406L17.567 17.7961C17.5072 17.7363 17.427 17.7015 17.3426 17.6987C17.2582 17.6959 17.1759 17.7252 17.1123 17.7808C16.3665 18.4374 15.4384 18.8509 14.4518 18.9662C13.4652 19.0815 12.4669 18.8932 11.59 18.4262C10.7131 17.9593 9.99925 17.236 9.54362 16.3528C9.088 15.4695 8.91225 14.4683 9.0398 13.4826C9.16735 12.4968 9.59213 11.5734 10.2575 10.8354C10.9229 10.0974 11.7973 9.57988 12.7642 9.35184C13.731 9.1238 14.7443 9.19607 15.669 9.55902C16.5938 9.92197 17.386 10.5584 17.9401 11.3833L15.1216 11.2481C15.0766 11.2459 15.0315 11.2529 14.9893 11.2687C14.947 11.2845 14.9084 11.3087 14.8758 11.3399C14.8432 11.3711 14.8172 11.4086 14.7995 11.4501C14.7817 11.4916 14.7726 11.5362 14.7727 11.5814V12.8983C14.7727 12.9867 14.8078 13.0715 14.8703 13.134C14.9327 13.1965 15.0175 13.2317 15.1058 13.2317H20.6669C20.7552 13.2317 20.84 13.1965 20.9024 13.134C20.9649 13.0715 21 12.9867 21 12.8983V7.33333C21 7.24493 20.9649 7.16014 20.9024 7.09763C20.84 7.03512 20.7552 7 20.6669 7V7Z" fill="white"/>
</g>
<defs>
<filter id="filter0_d" x="5" y="7" width="16" height="18" filterUnits="userSpaceOnUse" color-interpolation-filters="sRGB">
<feFlood flood-opacity="0" result="BackgroundImageFix"/>
<feColorMatrix in="SourceAlpha" type="matrix" values="0 0 0 0 0 0 0 0 0 0 0 0 0 0 0 0 0 0 127 0"/>
<feOffset dx="-1" dy="3"/>
<feGaussianBlur stdDeviation="0.5"/>
<feColorMatrix type="matrix" values="0 0 0 0 0 0 0 0 0 0 0 0 0 0 0 0 0 0 0.6 0"/>
<feBlend mode="normal" in2="BackgroundImageFix" result="effect1_dropShadow"/>
<feBlend mode="normal" in="SourceGraphic" in2="effect1_dropShadow" result="shape"/>
</filter>
</defs>
</svg>
