<svg width="40" height="40" viewBox="0 0 40 40" fill="none" xmlns="http://www.w3.org/2000/svg">
<circle cx="19.6467" cy="19.6472" r="13" transform="rotate(146.203 19.6467 19.6472)" fill="black" stroke="#AE8800" stroke-width="2"/>
<path d="M18.3536 29.5256L19.4473 28.7935C19.4848 28.7684 19.5168 28.736 19.5414 28.6982C19.5661 28.6604 19.5827 28.618 19.5904 28.5735C19.5982 28.5291 19.5968 28.4835 19.5864 28.4396C19.576 28.3957 19.5567 28.3543 19.5299 28.318L18.1588 26.4694C19.1188 26.7429 20.1267 26.8039 21.1123 26.6483C22.098 26.4926 23.0378 26.124 23.8663 25.5681C27.0189 23.4579 27.8663 19.1626 25.7524 16.0095C23.6351 12.8513 19.3604 12.0047 16.2024 14.1186C14.7844 15.0649 13.7698 16.5056 13.3563 18.16C13.3451 18.2039 13.3429 18.2496 13.35 18.2944C13.357 18.3392 13.3731 18.382 13.3973 18.4204C13.4215 18.4588 13.4532 18.4918 13.4906 18.5174C13.5279 18.5431 13.5701 18.5609 13.6146 18.5697L14.9243 18.8295C15.0071 18.846 15.0932 18.8303 15.1649 18.7857C15.2366 18.7411 15.2887 18.6709 15.3106 18.5893C15.5652 17.6289 16.1064 16.769 16.8621 16.1244C17.6179 15.4797 18.5522 15.0809 19.5407 14.9812C20.5291 14.8814 21.5247 15.0854 22.3946 15.5659C23.2645 16.0465 23.9675 16.7807 24.4099 17.6708C24.8522 18.561 25.0129 19.5646 24.8704 20.548C24.728 21.5315 24.2892 22.4479 23.6126 23.1752C22.936 23.9025 22.0537 24.4061 21.0834 24.6189C20.113 24.8317 19.1007 24.7435 18.1814 24.3662L20.5988 22.9108C20.6374 22.8875 20.6709 22.8566 20.6972 22.82C20.7236 22.7834 20.7422 22.7418 20.752 22.6977C20.7618 22.6537 20.7625 22.6081 20.7541 22.5637C20.7458 22.5194 20.7285 22.4772 20.7033 22.4397L19.9708 21.3453C19.9216 21.2718 19.8453 21.2209 19.7586 21.2037C19.6719 21.1865 19.5819 21.2045 19.5085 21.2536L14.8872 24.347C14.8138 24.3961 14.7629 24.4725 14.7458 24.5591C14.7286 24.6458 14.7466 24.7358 14.7958 24.8093L17.8914 29.4339C17.9405 29.5073 18.0169 29.5583 18.1036 29.5755C18.1902 29.5927 18.2802 29.5747 18.3536 29.5256Z" fill="url(#paint0_linear)"/>
<defs>
<linearGradient id="paint0_linear" x1="23.8939" y1="25.8171" x2="16.1063" y2="14.1829" gradientUnits="userSpaceOnUse">
<stop stop-color="white"/>
<stop offset="1" stop-color="#FFD600"/>
</linearGradient>
</defs>
</svg>
