<svg width="61" height="32" viewBox="0 0 61 32" fill="none" xmlns="http://www.w3.org/2000/svg">
<g filter="url(#filter0_i)">
<path d="M4.95153 8.27796C5.92253 3.64667 10.0067 0.329956 14.7387 0.329956L47.465 0.329956C52.4329 0.329956 56.6476 3.97699 57.3612 8.8934L58.958 19.8934C59.8335 25.9248 55.1563 31.33 49.0617 31.33L12.4325 31.33C6.08412 31.33 1.34257 25.4912 2.64525 19.278L4.95153 8.27796Z" fill="#063FD0"/>
</g>
<path d="M26.4833 5.79986L20.6413 5.8214L20.6399 5.43213L26.4818 5.41058L26.4833 5.79986ZM26.4872 6.88222L20.6453 6.90376L20.6438 6.505L26.4858 6.48345L26.4872 6.88222ZM28.1188 4.68296L19.0665 4.71634L19.0773 7.63113L28.1295 7.59775L28.1188 4.68296ZM27.3532 10.0597C27.1065 10.4024 26.7907 10.7169 26.4197 10.9936C26.0467 10.7196 25.7287 10.4075 25.4932 10.0666L27.3532 10.0597ZM20.055 11.2165L21.8461 11.2099L21.8475 11.5801C21.2414 11.6204 20.6353 11.6511 20.0567 11.6817L20.055 11.2165ZM20.0506 10.0392L21.8418 10.0326L21.8433 10.4313L20.0521 10.4379L20.0506 10.0392ZM21.8375 8.86474L21.8389 9.24452L20.0477 9.25112L20.0463 8.87135L21.8375 8.86474ZM28.3144 9.15418L28.0389 9.19317L23.7539 9.20897L23.7571 10.073L25.0247 10.0683L24.116 10.2425C24.4486 10.7635 24.8775 11.2367 25.375 11.6431C24.7974 11.9396 24.1231 12.1699 23.421 12.3339L23.4082 8.85895L29.7186 8.83568L29.7153 7.9432L17.4665 7.98837L17.4698 8.88085L18.5445 8.87689L18.5551 11.7632C18.1281 11.7933 17.7148 11.8043 17.3567 11.8246L17.4842 12.7926C18.6964 12.7121 20.2668 12.6114 21.8509 12.5011L21.8537 13.2702L23.4244 13.2644L23.4216 12.4953C23.698 12.7222 24.0023 13.0344 24.1546 13.2522C25.0081 13.0307 25.7924 12.7334 26.4937 12.3606C27.2254 12.7471 28.0807 13.0383 29.0597 13.2341C29.2791 12.9674 29.7048 12.5576 30.0209 12.3475C29.111 12.199 28.2834 11.9647 27.5933 11.6539C28.3627 11.0529 28.9524 10.3102 29.3212 9.41631L28.3144 9.15418Z" fill="white"/>
<path d="M43.494 8.0348L43.4897 6.86699L38.0749 6.88696C38.2094 6.00347 38.2199 5.12993 38.2308 4.35134L36.4397 4.35794C36.4288 5.13654 36.4457 6.00048 36.3112 6.89346L31.296 6.91196L31.3003 8.07977L36.04 8.06229C35.5087 9.69732 34.2056 11.2782 31.0539 12.2583C31.537 12.4939 32.0208 12.9004 32.2837 13.2127C35.2011 12.2335 36.6837 10.7469 37.4219 9.15857C38.5033 10.987 40.1067 12.3673 42.6035 13.1651C42.8641 12.8414 43.3996 12.3362 43.8121 12.0973C41.2329 11.3852 39.5603 9.90075 38.6441 8.05269L43.494 8.0348Z" fill="white"/>
<path d="M21.6005 20.5698L20.4301 20.764L20.4248 19.3399L21.7475 19.335L21.7437 18.2906L20.421 18.2955L20.4144 16.501L18.8437 16.5068L18.8503 18.3013L17.3485 18.3068L17.3523 19.3512L18.8541 19.3457L18.8604 21.0357C18.2407 21.1424 17.6761 21.2299 17.1804 21.3077L17.6115 22.3885L18.8645 22.156L18.8717 24.1119C18.8722 24.2448 18.8172 24.283 18.6381 24.2836C18.4728 24.2842 17.963 24.2861 17.4669 24.2785C17.6609 24.5626 17.8692 24.9986 17.9253 25.2832C18.8209 25.2799 19.4408 25.2491 19.8673 25.0671C20.3076 24.9041 20.4444 24.6378 20.4424 24.1061L20.4342 21.8654L21.811 21.604L21.6005 20.5698ZM26.6729 21.1018L26.6691 20.0669L28.0056 20.062L28.0094 21.0969L26.6729 21.1018ZM23.7795 21.1125L23.7757 20.0776L25.126 20.0726L25.1298 21.1075L23.7795 21.1125ZM25.1185 18.0408L25.1222 19.0472L23.7719 19.0522L23.7682 18.0458L25.1185 18.0408ZM28.0018 19.0366L26.6653 19.0415L26.6616 18.0351L27.9981 18.0302L28.0018 19.0366ZM22.1662 17.0263L22.1867 22.5995L23.785 22.5936L23.7833 22.1379L25.1336 22.1329L25.1454 25.342L26.6885 25.3363L26.6767 22.1272L28.0132 22.1223L28.0148 22.5685L29.682 22.5624L29.6615 16.9986L22.1662 17.0263Z" fill="white"/>
<path d="M38.3831 16.976C39.1446 17.9701 40.1818 19.0107 41.2735 19.8801L33.8333 19.9076C34.9186 19.0491 35.8792 18.0011 36.5503 16.9068L34.7854 16.562C33.964 18.0082 32.4533 19.324 30.734 20.1279C31.1343 20.3258 31.8386 20.7789 32.1427 21.0342C32.514 20.8334 32.8851 20.6042 33.2424 20.3465L33.2449 21.0111L35.5734 21.0025C35.3029 22.3897 34.591 23.6361 31.4797 24.3407C31.8803 24.5956 32.3642 25.059 32.5721 25.3811C36.1372 24.447 37.0268 22.8201 37.3645 20.9959L40.0788 20.9859C39.9622 22.9707 39.8137 23.8163 39.5389 24.0167C39.3877 24.1311 39.2362 24.1507 38.9882 24.1516C38.6438 24.1529 37.9273 24.146 37.1694 24.1108C37.4599 24.4326 37.6821 24.9065 37.7109 25.2482C38.5239 25.2642 39.323 25.2612 39.7913 25.212C40.3285 25.1626 40.7001 25.0663 41.0435 24.7612C41.5242 24.3606 41.6854 23.2397 41.8264 20.3718L41.8262 20.3053C42.1301 20.5226 42.4202 20.7304 42.7102 20.9097C43.0259 20.5858 43.658 20.1277 44.0981 19.8887C42.5933 19.0967 40.866 17.7264 39.9935 16.5238L38.3831 16.976Z" fill="white"/>
<defs>
<filter id="filter0_i" x="1.42871" y="-0.670044" width="57.6349" height="32" filterUnits="userSpaceOnUse" color-interpolation-filters="sRGB">
<feFlood flood-opacity="0" result="BackgroundImageFix"/>
<feBlend mode="normal" in="SourceGraphic" in2="BackgroundImageFix" result="shape"/>
<feColorMatrix in="SourceAlpha" type="matrix" values="0 0 0 0 0 0 0 0 0 0 0 0 0 0 0 0 0 0 127 0" result="hardAlpha"/>
<feOffset dx="-1" dy="-2"/>
<feGaussianBlur stdDeviation="0.5"/>
<feComposite in2="hardAlpha" operator="arithmetic" k2="-1" k3="1"/>
<feColorMatrix type="matrix" values="0 0 0 0 0 0 0 0 0 0.1875 0 0 0 0 0.0525 0 0 0 0.66 0"/>
<feBlend mode="normal" in2="shape" result="effect1_innerShadow"/>
</filter>
</defs>
</svg>
