<svg width="62" height="33" viewBox="0 0 62 33" fill="none" xmlns="http://www.w3.org/2000/svg">
<g filter="url(#filter0_i)">
<path d="M5.83336 9.27796C6.80437 4.64667 10.8886 1.32996 15.6206 1.32996L48.3468 1.32996C53.3147 1.32996 57.5294 4.97699 58.2431 9.8934L59.8399 20.8934C60.7154 26.9248 56.0382 32.33 49.9436 32.33L13.3143 32.33C6.96595 32.33 2.22441 26.4912 3.52709 20.278L5.83336 9.27796Z" fill="#063FD0"/>
</g>
<path d="M27.3651 4.79986L21.5232 4.8214L21.5217 4.43213L27.3637 4.41058L27.3651 4.79986ZM27.3691 5.88222L21.5271 5.90376L21.5257 5.505L27.3676 5.48345L27.3691 5.88222ZM29.0006 3.68296L19.9483 3.71634L19.9591 6.63113L29.0113 6.59775L29.0006 3.68296ZM28.2351 9.0597C27.9883 9.40242 27.6726 9.7169 27.3016 9.99361C26.9286 9.71965 26.6105 9.4075 26.375 9.06656L28.2351 9.0597ZM20.9368 10.2165L22.728 10.2099L22.7293 10.5801C22.1232 10.6204 21.5171 10.6511 20.9385 10.6817L20.9368 10.2165ZM20.9325 9.03916L22.7236 9.03256L22.7251 9.43132L20.9339 9.43793L20.9325 9.03916ZM22.7193 7.86474L22.7207 8.24452L20.9296 8.25112L20.9282 7.87135L22.7193 7.86474ZM29.1962 8.15418L28.9208 8.19317L24.6358 8.20897L24.639 9.07297L25.9066 9.06829L24.9978 9.24254C25.3304 9.76352 25.7593 10.2367 26.2568 10.6431C25.6792 10.9396 25.0049 11.1699 24.3028 11.3339L24.29 7.85895L30.6004 7.83568L30.5971 6.9432L18.3483 6.98837L18.3516 7.88085L19.4263 7.87689L19.437 10.7632C19.01 10.7933 18.5967 10.8043 18.2385 10.8246L18.3661 11.7926C19.5783 11.7121 21.1486 11.6114 22.7327 11.5011L22.7356 12.2702L24.3063 12.2644L24.3034 11.4953C24.5798 11.7222 24.8841 12.0344 25.0365 12.2522C25.8899 12.0307 26.6742 11.7334 27.3755 11.3606C28.1072 11.7471 28.9625 12.0383 29.9415 12.2341C30.161 11.9674 30.5866 11.5576 30.9027 11.3475C29.9928 11.199 29.1652 10.9647 28.4752 10.6539C29.2445 10.0529 29.8343 9.31016 30.203 8.41631L29.1962 8.15418Z" fill="white"/>
<path d="M44.3758 7.0348L44.3715 5.86699L38.9567 5.88696C39.0912 5.00347 39.1018 4.12993 39.1127 3.35134L37.3215 3.35794C37.3106 4.13654 37.3276 5.00048 37.1931 5.89346L32.1778 5.91196L32.1821 7.07977L36.9218 7.06229C36.3905 8.69732 35.0874 10.2782 31.9358 11.2583C32.4189 11.4939 32.9026 11.9004 33.1656 12.2127C36.083 11.2335 37.5655 9.74688 38.3037 8.15857C39.3852 9.98703 40.9885 11.3673 43.4854 12.1651C43.746 11.8414 44.2814 11.3362 44.6939 11.0973C42.1147 10.3852 40.4421 8.90075 39.5259 7.05269L44.3758 7.0348Z" fill="white"/>
<path d="M22.4824 19.5698L21.3119 19.764L21.3067 18.3399L22.6294 18.335L22.6255 17.2906L21.3028 17.2955L21.2962 15.501L19.7255 15.5068L19.7321 17.3013L18.2303 17.3068L18.2341 18.3512L19.736 18.3457L19.7422 20.0357C19.1226 20.1424 18.558 20.2299 18.0622 20.3077L18.4934 21.3885L19.7463 21.156L19.7535 23.1119C19.754 23.2448 19.6991 23.283 19.5199 23.2836C19.3546 23.2842 18.8448 23.2861 18.3488 23.2785C18.5427 23.5626 18.751 23.9986 18.8072 24.2832C19.7027 24.2799 20.3227 24.2491 20.7491 24.0671C21.1894 23.9041 21.3262 23.6378 21.3243 23.1061L21.316 20.8654L22.6929 20.604L22.4824 19.5698ZM27.5548 20.1018L27.551 19.0669L28.8874 19.062L28.8913 20.0969L27.5548 20.1018ZM24.6614 20.1125L24.6575 19.0776L26.0078 19.0726L26.0116 20.1075L24.6614 20.1125ZM26.0003 17.0408L26.004 18.0472L24.6538 18.0522L24.65 17.0458L26.0003 17.0408ZM28.8837 18.0366L27.5472 18.0415L27.5435 17.0351L28.8799 17.0302L28.8837 18.0366ZM23.048 16.0263L23.0686 21.5995L24.6668 21.5936L24.6651 21.1379L26.0154 21.1329L26.0272 24.342L27.5704 24.3363L27.5586 21.1272L28.895 21.1223L28.8967 21.5685L30.5638 21.5624L30.5433 15.9986L23.048 16.0263Z" fill="white"/>
<path d="M39.2649 15.976C40.0264 16.9701 41.0636 18.0107 42.1553 18.8801L34.7151 18.9076C35.8004 18.0491 36.761 17.0011 37.4322 15.9068L35.6673 15.562C34.8459 17.0082 33.3351 18.324 31.6158 19.1279C32.0161 19.3258 32.7205 19.7789 33.0245 20.0342C33.3958 19.8334 33.767 19.6042 34.1243 19.3465L34.1267 20.0111L36.4552 20.0025C36.1848 21.3897 35.4729 22.6361 32.3616 23.3407C32.7621 23.5956 33.246 24.059 33.4539 24.3811C37.0191 23.447 37.9086 21.8201 38.2464 19.9959L40.9607 19.9859C40.844 21.9707 40.6955 22.8163 40.4207 23.0167C40.2696 23.1311 40.1181 23.1507 39.8701 23.1516C39.5256 23.1529 38.8091 23.146 38.0512 23.1108C38.3417 23.4326 38.5639 23.9065 38.5927 24.2482C39.4057 24.2642 40.2049 24.2612 40.6731 24.212C41.2103 24.1626 41.582 24.0663 41.9253 23.7612C42.4061 23.3606 42.5673 22.2397 42.7083 19.3718L42.708 19.3053C43.0119 19.5226 43.302 19.7304 43.5921 19.9097C43.9078 19.5858 44.5399 19.1277 44.9799 18.8887C43.4751 18.0967 41.7478 16.7264 40.8753 15.5238L39.2649 15.976Z" fill="white"/>
<defs>
<filter id="filter0_i" x="2.31055" y="0.329956" width="57.6349" height="32" filterUnits="userSpaceOnUse" color-interpolation-filters="sRGB">
<feFlood flood-opacity="0" result="BackgroundImageFix"/>
<feBlend mode="normal" in="SourceGraphic" in2="BackgroundImageFix" result="shape"/>
<feColorMatrix in="SourceAlpha" type="matrix" values="0 0 0 0 0 0 0 0 0 0 0 0 0 0 0 0 0 0 127 0" result="hardAlpha"/>
<feOffset dx="-1" dy="-6"/>
<feGaussianBlur stdDeviation="0.5"/>
<feComposite in2="hardAlpha" operator="arithmetic" k2="-1" k3="1"/>
<feColorMatrix type="matrix" values="0 0 0 0 0 0 0 0 0 0.1125 0 0 0 0 0.018 0 0 0 0.66 0"/>
<feBlend mode="normal" in2="shape" result="effect1_innerShadow"/>
</filter>
</defs>
</svg>
