<svg width="19" height="19" viewBox="0 0 19 19" fill="none" xmlns="http://www.w3.org/2000/svg">
<path d="M18.8335 17.9795L13.0798 12.1719C14.2269 10.7988 14.8004 9.21549 14.8004 7.42188C14.8004 6.07357 14.4705 4.8304 13.8106 3.69238C13.1508 2.55436 12.2504 1.65446 11.1095 0.992676C9.96868 0.330892 8.72915 0 7.39094 0C6.05274 0 4.81629 0.330892 3.6816 0.992676C2.5469 1.65446 1.64963 2.55436 0.989776 3.69238C0.329925 4.8304 0 6.07357 0 7.42188C0 8.77018 0.329925 10.0133 0.989776 11.1514C1.64963 12.2894 2.5469 13.1893 3.6816 13.8511C4.81629 14.5129 6.05583 14.8438 7.40019 14.8438C9.23791 14.8438 10.8536 14.2376 12.2473 13.0254L17.9825 18.8145C18.1058 18.9382 18.2476 19 18.408 19C18.5683 19 18.7071 18.9412 18.8242 18.8237C18.9414 18.7062 19 18.564 19 18.397C19 18.23 18.9445 18.0908 18.8335 17.9795ZM7.40019 13.6748C6.2655 13.6748 5.22022 13.3934 4.26436 12.8306C3.3085 12.2677 2.55307 11.507 1.99805 10.5483C1.44304 9.58968 1.16553 8.54753 1.16553 7.42188C1.16553 6.29622 1.44304 5.25407 1.99805 4.29541C2.55307 3.33675 3.3085 2.57601 4.26436 2.01318C5.22022 1.45036 6.26241 1.16895 7.39094 1.16895C8.51947 1.16895 9.56167 1.45036 10.5175 2.01318C11.4734 2.57601 12.2288 3.33675 12.7838 4.29541C13.3389 5.25407 13.6164 6.29622 13.6164 7.42188C13.6164 7.9043 13.5609 8.38053 13.4499 8.85059C13.3389 9.32064 13.1816 9.75977 12.9781 10.168C12.7746 10.5762 12.531 10.9627 12.2473 11.3276C11.9636 11.6925 11.643 12.0173 11.2853 12.3018C10.9276 12.5863 10.5453 12.8306 10.1383 13.0347C9.73126 13.2388 9.29341 13.3965 8.82473 13.5078C8.35605 13.6191 7.88121 13.6748 7.40019 13.6748Z" fill="white"/>
</svg>
