<svg width="95" height="35" viewBox="0 0 95 35" fill="none" xmlns="http://www.w3.org/2000/svg">
<path d="M15.2812 22.9688C17.6771 22.9688 19.8438 22.5469 21.7812 21.7031C23.7188 20.8594 25.2448 19.6562 26.3594 18.0938C27.474 16.5312 28.0208 14.75 28 12.75C28 12.0833 27.9115 11.4271 27.7344 10.7812C27.5573 10.1354 27.3073 9.52083 26.9844 8.9375C26.6615 8.35417 26.2656 7.80208 25.7969 7.28125C25.3281 6.76042 24.8073 6.28125 24.2344 5.84375C23.6615 5.40625 23.026 5.01042 22.3281 4.65625C21.6302 4.30208 20.8958 4.00521 20.125 3.76562C19.3542 3.52604 18.5417 3.33854 17.6875 3.20312C16.8333 3.06771 15.9583 3 15.0625 3C12.6875 3 10.5 3.43229 8.5 4.29688C6.5 5.16146 4.91667 6.34375 3.75 7.84375C2.58333 9.34375 2 10.9792 2 12.75C2 14.5208 2.4375 16.2083 3.3125 17.8125C4.1875 19.4167 5.44792 20.6354 7.09375 21.4688V21.5312C7.09375 22.4479 6.52083 23.8854 5.375 25.8438H5.40625C5.36458 25.9271 5.34375 26.0208 5.34375 26.125C5.34375 26.1875 5.34896 26.2448 5.35938 26.2969C5.36979 26.349 5.38542 26.401 5.40625 26.4531C5.42708 26.5052 5.45312 26.5521 5.48438 26.5938C5.51562 26.6354 5.55208 26.6719 5.59375 26.7031C5.63542 26.7344 5.68229 26.7604 5.73438 26.7812L5.89062 26.8438L6.0625 26.875C6.08333 26.875 6.11979 26.8698 6.17188 26.8594L6.25 26.8438H6.28125C6.86458 26.7604 7.54688 26.5365 8.32812 26.1719C9.10938 25.8073 9.82812 25.4062 10.4844 24.9688C11.1406 24.5312 11.7135 24.1198 12.2031 23.7344C12.6927 23.349 13.0104 23.0625 13.1562 22.875C13.3021 22.8958 13.4375 22.9167 13.5625 22.9375C13.6875 22.9583 13.8073 22.9688 13.9219 22.9688H15.2812ZM12.3438 20.8125L11.0625 21.875C10.8958 22.0833 10.5312 22.4115 9.96875 22.8594C9.40625 23.3073 8.86458 23.6875 8.34375 24C8.55208 23.4375 8.70833 22.9427 8.8125 22.5156C8.91667 22.0885 8.97917 21.8125 9 21.6875V21.4688L9.09375 20.25L8 19.6875C6.6875 19.0208 5.69271 18.0469 5.01562 16.7656C4.33854 15.4844 4 14.1458 4 12.75C4 11.3333 4.49479 10.0312 5.48438 8.84375C6.47396 7.65625 7.81771 6.71875 9.51562 6.03125C11.2135 5.34375 13.0625 5 15.0625 5C17.0625 5 18.901 5.34375 20.5781 6.03125C22.2552 6.71875 23.5781 7.65625 24.5469 8.84375C25.5156 10.0312 26 11.3333 26 12.75C26 13.9167 25.7292 15.0156 25.1875 16.0469C24.6458 17.0781 23.9062 17.9531 22.9688 18.6719C22.0312 19.3906 20.901 19.9583 19.5781 20.375C18.2552 20.7917 16.8438 21 15.3438 21C14.7188 21.0208 14.0833 20.9896 13.4375 20.9062L12.3438 20.8125ZM34 20.8125C34 18.0417 32.7708 15.9375 30.3125 14.5C30.25 15.1042 30.0833 15.8229 29.8125 16.6562C30.6458 17.2396 31.2188 17.849 31.5312 18.4844C31.8438 19.1198 32 19.8958 32 20.8125C32 21.3542 31.9375 21.8594 31.8125 22.3281C31.6875 22.7969 31.4896 23.2344 31.2188 23.6406C30.9479 24.0469 30.599 24.4219 30.1719 24.7656C29.7448 25.1094 29.2396 25.4375 28.6562 25.75L27.6875 26.2188C27.75 27.9271 27.8333 29 27.9375 29.4375C27.5625 29.1667 27.2188 28.8958 26.9062 28.625C26.5938 28.3542 26.3438 28.1146 26.1562 27.9062C25.9688 27.6979 25.8073 27.5104 25.6719 27.3438C25.5365 27.1771 25.4375 27.0417 25.375 26.9375L25.3125 26.8125L24.25 26.9688C24.125 26.9896 23.9375 27.0052 23.6875 27.0156C23.4375 27.026 23.2083 27.0312 23 27.0312H22.7188C20.1146 27.0312 17.9688 26.375 16.2812 25.0625H13.4375L13.4062 25.0938C13.8021 25.5729 14.25 26.0156 14.75 26.4219C15.25 26.8281 15.7917 27.1927 16.375 27.5156C16.9583 27.8385 17.5833 28.1146 18.25 28.3438C18.9167 28.5729 19.625 28.7448 20.375 28.8594C21.125 28.974 21.9062 29.0312 22.7188 29.0312H23.3125C23.75 29.0312 24.1562 29.0104 24.5312 28.9688C24.9896 29.4896 25.7708 30.1667 26.875 31C27.9792 31.8333 29 32.3333 29.9375 32.5H30.125C30.3125 32.5 30.4688 32.4375 30.5938 32.3125C30.7188 32.1875 30.7812 32.0312 30.7812 31.8438C30.7812 31.7604 30.7604 31.6771 30.7188 31.5938C30.6146 31.4271 30.5 31.1771 30.375 30.8438C30.25 30.5104 30.1354 30.1562 30.0312 29.7812C29.9271 29.4062 29.8385 29.0156 29.7656 28.6094C29.6927 28.2031 29.6562 27.8438 29.6562 27.5312V27.4688C32.5521 25.9688 34 23.75 34 20.8125Z" fill="white"/>
<path d="M48.536 15.744V16.74H46.568V15.744H48.536ZM46.568 18.972V17.988H48.536V18.972H46.568ZM47.336 21.084C47.564 21.42 47.792 21.792 48.008 22.164L46.568 22.524V20.292H49.856V14.424H45.2V22.836C44.912 22.908 44.636 22.968 44.396 23.016L44.804 24.48C45.896 24.18 47.3 23.796 48.656 23.412C48.836 23.796 48.98 24.156 49.064 24.468L50.324 23.832C50.024 22.908 49.232 21.552 48.488 20.544L47.336 21.084ZM55.16 14.4H50.528V25.032H51.98V15.84H53.684V21.6C53.684 21.756 53.636 21.816 53.48 21.816C53.312 21.816 52.82 21.828 52.352 21.792C52.568 22.188 52.796 22.92 52.844 23.352C53.612 23.352 54.176 23.316 54.62 23.052C55.052 22.788 55.16 22.32 55.16 21.648V14.4ZM59.204 15.84V17.952H58.1V15.84H59.204ZM58.1 21.456V19.2H59.204V21.456H58.1ZM60.536 14.568H56.78V23.784H58.1V22.728H60.536V14.568ZM61.244 21.72C61.784 22.332 62.396 23.184 62.612 23.736L63.836 23.028C63.584 22.44 62.936 21.648 62.384 21.06L61.244 21.72ZM67.592 18.648V17.4H64.856V16.344H67.256V15.096H64.856V13.836H63.452V15.096H61.148V16.344H63.452V17.4H60.74V18.648H64.976V19.68H60.764V20.916H64.976V23.496C64.976 23.664 64.916 23.712 64.724 23.712C64.544 23.712 63.872 23.712 63.296 23.688C63.488 24.072 63.704 24.636 63.752 25.032C64.64 25.032 65.288 24.996 65.756 24.792C66.224 24.576 66.356 24.216 66.356 23.532V20.916H67.508V19.68H66.356V18.648H67.592ZM72.128 22.56H74.3V21.552H72.128V21.084H74.252V17.376H72.128V16.908H74.432V17.844H75.524C75.44 19.992 75.152 21.708 74.216 23.004C73.52 23.064 72.812 23.124 72.128 23.172V22.56ZM69.896 20.196V19.656H70.832V20.196H69.896ZM73.064 19.656V20.196H72.128V19.656H73.064ZM72.128 18.804V18.276H73.064V18.804H72.128ZM69.896 18.276H70.832V18.804H69.896V18.276ZM76.916 16.536C76.94 15.744 76.94 14.904 76.94 14.028H75.572C75.572 14.916 75.572 15.744 75.56 16.536H74.432V15.876H72.128V15.288C72.908 15.204 73.652 15.096 74.288 14.964L73.664 13.896C72.344 14.184 70.268 14.388 68.492 14.484C68.624 14.76 68.756 15.204 68.804 15.492C69.452 15.48 70.136 15.444 70.832 15.396V15.876H68.468V16.908H70.832V17.376H68.768V21.084H70.832V21.552H68.72V22.56H70.832V23.28C69.908 23.34 69.068 23.4 68.396 23.448L68.564 24.648C69.86 24.54 71.588 24.36 73.316 24.18C73.628 24.444 73.976 24.84 74.156 25.128C76.172 23.532 76.724 21.06 76.88 17.844H77.96C77.888 21.72 77.768 23.184 77.516 23.508C77.408 23.664 77.288 23.712 77.108 23.712C76.88 23.712 76.424 23.7 75.896 23.652C76.136 24.048 76.292 24.624 76.316 25.02C76.892 25.032 77.444 25.044 77.804 24.972C78.2 24.888 78.476 24.768 78.752 24.372C79.136 23.82 79.232 22.08 79.34 17.172C79.34 17.004 79.352 16.536 79.352 16.536H76.916ZM89.852 17.724C90.848 17.724 91.22 17.412 91.352 16.236C90.992 16.176 90.464 15.984 90.2 15.804C90.164 16.488 90.08 16.596 89.72 16.596H88.304C87.824 16.596 87.764 16.548 87.764 16.224V15.888C88.808 15.672 89.996 15.36 90.896 14.976L89.912 14.124C89.396 14.4 88.58 14.676 87.764 14.892V13.92H86.444V16.224C86.444 17.376 86.768 17.724 88.136 17.724H89.852ZM89.912 21.78C90.92 21.78 91.292 21.444 91.424 20.22C91.076 20.16 90.536 19.968 90.272 19.776C90.224 20.52 90.152 20.64 89.78 20.64H88.316C87.824 20.64 87.764 20.604 87.764 20.244V19.932C88.868 19.716 90.104 19.38 91.028 18.96L90.044 18.108C89.492 18.408 88.628 18.696 87.764 18.924V17.832H86.444V20.256C86.444 21.42 86.768 21.78 88.148 21.78H89.912ZM80.648 16.5C81.848 16.452 83.468 16.404 85.064 16.32C85.16 16.5 85.256 16.668 85.316 16.824L86.384 16.224C86.12 15.648 85.46 14.82 84.86 14.232L83.864 14.76C84.02 14.928 84.188 15.12 84.344 15.312L82.868 15.348C83.144 14.964 83.432 14.532 83.696 14.112L82.292 13.776C82.112 14.244 81.812 14.856 81.512 15.384L80.588 15.396L80.648 16.5ZM81.512 24.828C82.388 24.3 82.916 23.448 83.24 22.56L82.028 22.104C81.752 22.872 81.164 23.604 80.396 24.048L81.512 24.828ZM82.472 19.476V19.032H84.416V19.476H82.472ZM84.416 17.844V18.264H82.472V17.844H84.416ZM84.728 22.02C85.376 22.344 86.132 22.896 86.468 23.304L87.392 22.44C87.008 22.032 86.24 21.54 85.616 21.24C85.676 21.084 85.7 20.892 85.7 20.628V16.92H81.2V21.78H82.472V20.268H84.416V20.628C84.416 20.748 84.368 20.784 84.236 20.796C84.14 20.796 83.732 20.796 83.372 20.784C83.516 21.036 83.684 21.444 83.744 21.756C84.356 21.756 84.836 21.744 85.184 21.6L84.728 22.02ZM85.604 23.784C85.076 23.784 84.968 23.748 84.968 23.436V22.236H83.576V23.448C83.576 24.576 83.948 24.924 85.436 24.924H87.404C88.484 24.924 88.868 24.6 89.012 23.328C88.652 23.256 88.088 23.076 87.812 22.872C87.764 23.664 87.68 23.784 87.248 23.784H85.604ZM88.46 22.62C89.24 23.268 90.068 24.204 90.368 24.852L91.604 24.156C91.244 23.46 90.38 22.596 89.588 21.996L88.46 22.62Z" fill="white"/>
</svg>
