<svg width="95" height="35" viewBox="0 0 95 35" fill="none" xmlns="http://www.w3.org/2000/svg">
<path d="M35.0909 19.3068C35.0909 18 35.0341 16.8258 34.9205 15.7841C34.7121 13.9659 34.196 12.2661 33.3722 10.6847C32.5483 9.10322 31.5114 7.74905 30.2614 6.62216C29.0114 5.49527 27.553 4.60985 25.8864 3.96591C24.2197 3.32197 22.4678 3 20.6307 3C18.0739 3 15.7159 3.60606 13.5568 4.81818C11.3977 6.0303 9.6553 7.7017 8.32955 9.83239C7.00379 11.9631 6.27462 14.3258 6.14205 16.9205C6.10417 17.8485 6.07576 18.5587 6.05682 19.0511V19.4773C6.05682 19.5341 6.05208 19.5909 6.04261 19.6477L6.0142 19.8182L6 19.9886V26.0966C6 26.7595 6.23674 27.3277 6.71023 27.8011C7.18371 28.2746 7.75189 28.5114 8.41477 28.5114H10.858C11.5398 28.5114 12.1127 28.2746 12.5767 27.8011C13.0407 27.3277 13.2727 26.7595 13.2727 26.0966V19.9886C13.2727 19.553 13.1686 19.1506 12.9602 18.7812C12.7519 18.4119 12.4631 18.1184 12.0938 17.9006C11.7244 17.6828 11.3125 17.5739 10.858 17.5739H8.41477C8.24432 17.5739 8.08333 17.5928 7.93182 17.6307V17.4176L7.94602 17.2472L7.96023 17.1051V17.0341C8.07386 14.7424 8.70833 12.6638 9.86364 10.7983C11.0189 8.93277 12.5436 7.4697 14.4375 6.40909C16.3314 5.34848 18.3958 4.81818 20.6307 4.81818C23.8883 4.81818 26.6913 5.87405 29.0398 7.9858C31.3883 10.0975 32.7424 12.7633 33.1023 15.983C33.1212 16.1155 33.1402 16.3333 33.1591 16.6364C33.178 16.9394 33.197 17.2708 33.2159 17.6307C33.0265 17.5928 32.8466 17.5739 32.6761 17.5739H30.2614C29.5795 17.5739 29.0066 17.8106 28.5426 18.2841C28.0786 18.7576 27.8466 19.3258 27.8466 19.9886V26.0682C27.8466 26.5038 27.9602 26.911 28.1875 27.2898C28.4148 27.6686 28.7273 27.9621 29.125 28.1705L23.2727 30.4716V30.3295C23.2727 30.1591 23.2348 30.0028 23.1591 29.8608C23.0833 29.7188 22.9744 29.6098 22.8324 29.5341C22.6903 29.4583 22.5341 29.4205 22.3636 29.4205H19.6364C19.3902 29.4205 19.1771 29.5057 18.9972 29.6761C18.8172 29.8466 18.7273 30.0644 18.7273 30.3295V31.2386C18.7273 31.4848 18.8172 31.6979 18.9972 31.8778C19.1771 32.0578 19.3902 32.1477 19.6364 32.1477H22.392L24.0114 32.1193L33.3864 28.4545L33.5 28.3977L33.5994 28.3267L33.6989 28.2273C34.1155 28.0379 34.4517 27.7491 34.7074 27.3608C34.9631 26.9725 35.0909 26.5417 35.0909 26.0682V19.9886C35.0909 19.8561 35.072 19.714 35.0341 19.5625C35.072 19.4678 35.0909 19.3826 35.0909 19.3068ZM8.41477 19.392H10.858C10.9527 19.392 11.0331 19.4062 11.0994 19.4347C11.1657 19.4631 11.2273 19.5057 11.2841 19.5625C11.3409 19.6193 11.3835 19.6856 11.4119 19.7614C11.4403 19.8371 11.4545 19.9129 11.4545 19.9886V26.0966C11.4545 26.2481 11.3977 26.3854 11.2841 26.5085C11.1705 26.6316 11.0284 26.6932 10.858 26.6932H8.41477C8.24432 26.6932 8.10227 26.6316 7.98864 26.5085C7.875 26.3854 7.81818 26.2481 7.81818 26.0966V19.9886C7.81818 19.9129 7.83239 19.8371 7.8608 19.7614C7.8892 19.6856 7.93182 19.6193 7.98864 19.5625C8.04545 19.5057 8.11174 19.4631 8.1875 19.4347C8.26326 19.4062 8.33902 19.392 8.41477 19.392ZM29.6648 19.9886C29.6648 19.9318 29.6742 19.8703 29.6932 19.804C29.7121 19.7377 29.7405 19.6809 29.7784 19.6335C29.8163 19.5862 29.8589 19.5436 29.9062 19.5057C29.9536 19.4678 30.0057 19.4394 30.0625 19.4205C30.1193 19.4015 30.1856 19.392 30.2614 19.392H32.6761C32.7898 19.392 32.8892 19.4205 32.9744 19.4773C33.0597 19.5341 33.1307 19.6051 33.1875 19.6903C33.2443 19.7756 33.2727 19.875 33.2727 19.9886V26.0682C33.2727 26.1629 33.2443 26.2576 33.1875 26.3523C33.1307 26.447 33.0597 26.5227 32.9744 26.5795C32.8892 26.6364 32.7898 26.6648 32.6761 26.6648H30.2614C30.0909 26.6648 29.9489 26.6032 29.8352 26.4801C29.7216 26.357 29.6648 26.2197 29.6648 26.0682V19.9886Z" fill="white"/>
<path d="M43.804 17.856C43.708 18.864 43.54 19.932 43.192 20.64C43.48 20.748 43.996 20.976 44.236 21.144C44.572 20.376 44.836 19.188 44.944 18.048L43.804 17.856ZM46.444 18.108C46.696 18.768 46.924 19.632 46.972 20.196L48.028 19.86C47.956 19.296 47.716 18.456 47.44 17.808L46.444 18.108ZM49.552 14.772H52.768V15.408H49.552V14.772ZM49.552 13.128H52.768V13.74H49.552V13.128ZM53.476 16.788C53.2 17.148 52.792 17.592 52.384 17.976C52.156 17.532 51.988 17.064 51.856 16.608V16.5H54.112V12.024H51.64C51.82 11.724 52 11.388 52.168 11.052L50.56 10.824C50.464 11.184 50.308 11.628 50.14 12.024H48.268V16.5H50.584V17.556L49.864 17.268L49.648 17.304H48.052L48.184 17.244C48.04 16.572 47.584 15.516 47.116 14.7L46.108 15.12C46.24 15.36 46.372 15.624 46.492 15.888L45.448 15.948C46.204 14.988 47.02 13.8 47.68 12.792L46.516 12.252C46.24 12.84 45.856 13.524 45.436 14.196C45.328 14.052 45.196 13.884 45.052 13.728C45.496 13.056 45.988 12.108 46.408 11.28L45.172 10.848C44.98 11.46 44.644 12.264 44.308 12.924C44.212 12.84 44.116 12.756 44.032 12.672L43.336 13.632C43.816 14.124 44.368 14.772 44.704 15.312C44.524 15.564 44.344 15.804 44.164 16.02L43.3 16.068L43.444 17.304L45.112 17.172V22.044H46.336V17.076L46.936 17.028C47.008 17.292 47.08 17.532 47.116 17.736L47.956 17.352V18.468H49.12C48.724 19.428 48.076 20.16 47.26 20.604C47.524 20.796 47.968 21.288 48.148 21.552C49.264 20.868 50.14 19.608 50.584 17.784V20.664C50.584 20.796 50.548 20.832 50.392 20.832C50.26 20.832 49.816 20.832 49.408 20.82C49.564 21.168 49.696 21.672 49.744 22.032C50.476 22.032 50.992 22.02 51.376 21.816C51.76 21.624 51.856 21.288 51.856 20.676V19.308C52.336 20.196 53.02 21.024 53.956 21.552C54.136 21.204 54.544 20.652 54.796 20.4C54.04 20.064 53.452 19.548 52.984 18.96C53.5 18.588 54.076 18.096 54.628 17.64L53.476 16.788ZM61.384 20.016V15.864H65.62V14.412H61.384V10.98H59.848V20.016H55.552V21.456H66.46V20.016H61.384ZM71.092 18.3C71.74 18.072 72.364 17.796 72.94 17.496C73.576 17.808 74.26 18.084 74.992 18.3H71.092ZM71.02 20.496V19.476H75.016V20.496H71.02ZM71.596 14.952H74.26C73.9 15.324 73.444 15.672 72.94 15.984C72.4 15.696 71.932 15.36 71.536 15L71.596 14.952ZM75.472 13.824L75.232 13.884H72.616C72.748 13.716 72.88 13.548 73 13.38L71.668 13.116H76.684V14.448H78.148V11.82H73.696V10.848H72.232V11.82H67.852V14.448H69.256V13.116H71.464C70.864 14.004 69.76 14.892 68.092 15.528C68.404 15.744 68.848 16.248 69.04 16.584C69.58 16.332 70.06 16.068 70.504 15.78C70.84 16.104 71.2 16.404 71.584 16.68C70.312 17.244 68.836 17.64 67.372 17.868C67.612 18.168 67.912 18.756 68.032 19.14C68.572 19.032 69.1 18.912 69.628 18.768V22.044H71.02V21.672H75.016V22.02H76.492V18.684C76.888 18.756 77.296 18.828 77.716 18.888C77.908 18.48 78.316 17.844 78.616 17.508C77.068 17.352 75.616 17.052 74.368 16.608C75.208 15.984 75.916 15.264 76.432 14.4L75.472 13.824ZM81.388 16.74C81.4 16.344 81.4 15.972 81.4 15.612V15.288H82.576V16.74H81.388ZM82.576 12.576V13.968H81.4V12.576H82.576ZM83.896 11.256H80.116V15.612C80.116 17.364 80.068 19.776 79.324 21.408C79.636 21.516 80.224 21.852 80.476 22.056C80.968 20.964 81.208 19.488 81.316 18.084H82.576V20.46C82.576 20.628 82.516 20.676 82.372 20.676C82.228 20.676 81.784 20.688 81.352 20.664C81.532 21.024 81.7 21.672 81.736 22.044C82.516 22.044 83.032 22.008 83.404 21.78C83.8 21.528 83.896 21.144 83.896 20.484V11.256ZM85.912 16.716H85.984C86.344 17.808 86.788 18.816 87.376 19.692C86.932 20.196 86.452 20.616 85.912 20.916V16.716ZM88.9 16.716C88.708 17.388 88.444 18.024 88.12 18.588C87.748 18.012 87.436 17.376 87.196 16.716H88.9ZM89.596 15.384L89.38 15.432H85.912V12.588H88.708V13.548C88.708 13.692 88.648 13.728 88.456 13.74C88.264 13.752 87.556 13.752 86.956 13.716C87.124 14.064 87.316 14.544 87.376 14.916C88.288 14.916 88.972 14.916 89.44 14.736C89.944 14.544 90.076 14.208 90.076 13.584V11.268H84.556V22.056H85.912V21.072C86.176 21.336 86.476 21.756 86.62 22.032C87.208 21.684 87.736 21.252 88.192 20.748C88.696 21.264 89.272 21.708 89.896 22.056C90.1 21.708 90.496 21.204 90.784 20.94C90.124 20.652 89.524 20.208 89.008 19.68C89.68 18.6 90.172 17.28 90.448 15.66L89.596 15.384Z" fill="white"/>
</svg>
