<svg width="95" height="50" viewBox="0 0 95 50" fill="none" xmlns="http://www.w3.org/2000/svg">
<g clip-path="url(#clip0)">
<rect x="-5" width="357" height="50" fill="url(#paint0_linear)"/>
<path d="M16.2812 30.9688C18.6771 30.9688 20.8438 30.5469 22.7812 29.7031C24.7188 28.8594 26.2448 27.6562 27.3594 26.0938C28.474 24.5312 29.0208 22.75 29 20.75C29 20.0833 28.9115 19.4271 28.7344 18.7812C28.5573 18.1354 28.3073 17.5208 27.9844 16.9375C27.6615 16.3542 27.2656 15.8021 26.7969 15.2812C26.3281 14.7604 25.8073 14.2812 25.2344 13.8438C24.6615 13.4062 24.026 13.0104 23.3281 12.6562C22.6302 12.3021 21.8958 12.0052 21.125 11.7656C20.3542 11.526 19.5417 11.3385 18.6875 11.2031C17.8333 11.0677 16.9583 11 16.0625 11C13.6875 11 11.5 11.4323 9.5 12.2969C7.5 13.1615 5.91667 14.3438 4.75 15.8438C3.58333 17.3438 3 18.9792 3 20.75C3 22.5208 3.4375 24.2083 4.3125 25.8125C5.1875 27.4167 6.44792 28.6354 8.09375 29.4688V29.5312C8.09375 30.4479 7.52083 31.8854 6.375 33.8438H6.40625C6.36458 33.9271 6.34375 34.0208 6.34375 34.125C6.34375 34.1875 6.34896 34.2448 6.35938 34.2969C6.36979 34.349 6.38542 34.401 6.40625 34.4531C6.42708 34.5052 6.45312 34.5521 6.48438 34.5938C6.51562 34.6354 6.55208 34.6719 6.59375 34.7031C6.63542 34.7344 6.68229 34.7604 6.73438 34.7812L6.89062 34.8438L7.0625 34.875C7.08333 34.875 7.11979 34.8698 7.17188 34.8594L7.25 34.8438H7.28125C7.86458 34.7604 8.54688 34.5365 9.32812 34.1719C10.1094 33.8073 10.8281 33.4062 11.4844 32.9688C12.1406 32.5312 12.7135 32.1198 13.2031 31.7344C13.6927 31.349 14.0104 31.0625 14.1562 30.875C14.3021 30.8958 14.4375 30.9167 14.5625 30.9375C14.6875 30.9583 14.8073 30.9688 14.9219 30.9688H16.2812ZM13.3438 28.8125L12.0625 29.875C11.8958 30.0833 11.5312 30.4115 10.9688 30.8594C10.4062 31.3073 9.86458 31.6875 9.34375 32C9.55208 31.4375 9.70833 30.9427 9.8125 30.5156C9.91667 30.0885 9.97917 29.8125 10 29.6875V29.4688L10.0938 28.25L9 27.6875C7.6875 27.0208 6.69271 26.0469 6.01562 24.7656C5.33854 23.4844 5 22.1458 5 20.75C5 19.3333 5.49479 18.0312 6.48438 16.8438C7.47396 15.6562 8.81771 14.7188 10.5156 14.0312C12.2135 13.3438 14.0625 13 16.0625 13C18.0625 13 19.901 13.3438 21.5781 14.0312C23.2552 14.7188 24.5781 15.6562 25.5469 16.8438C26.5156 18.0312 27 19.3333 27 20.75C27 21.9167 26.7292 23.0156 26.1875 24.0469C25.6458 25.0781 24.9062 25.9531 23.9688 26.6719C23.0312 27.3906 21.901 27.9583 20.5781 28.375C19.2552 28.7917 17.8438 29 16.3438 29C15.7188 29.0208 15.0833 28.9896 14.4375 28.9062L13.3438 28.8125ZM35 28.8125C35 26.0417 33.7708 23.9375 31.3125 22.5C31.25 23.1042 31.0833 23.8229 30.8125 24.6562C31.6458 25.2396 32.2188 25.849 32.5312 26.4844C32.8438 27.1198 33 27.8958 33 28.8125C33 29.3542 32.9375 29.8594 32.8125 30.3281C32.6875 30.7969 32.4896 31.2344 32.2188 31.6406C31.9479 32.0469 31.599 32.4219 31.1719 32.7656C30.7448 33.1094 30.2396 33.4375 29.6562 33.75L28.6875 34.2188C28.75 35.9271 28.8333 37 28.9375 37.4375C28.5625 37.1667 28.2188 36.8958 27.9062 36.625C27.5938 36.3542 27.3438 36.1146 27.1562 35.9062C26.9688 35.6979 26.8073 35.5104 26.6719 35.3438C26.5365 35.1771 26.4375 35.0417 26.375 34.9375L26.3125 34.8125L25.25 34.9688C25.125 34.9896 24.9375 35.0052 24.6875 35.0156C24.4375 35.026 24.2083 35.0312 24 35.0312H23.7188C21.1146 35.0312 18.9688 34.375 17.2812 33.0625H14.4375L14.4062 33.0938C14.8021 33.5729 15.25 34.0156 15.75 34.4219C16.25 34.8281 16.7917 35.1927 17.375 35.5156C17.9583 35.8385 18.5833 36.1146 19.25 36.3438C19.9167 36.5729 20.625 36.7448 21.375 36.8594C22.125 36.974 22.9062 37.0312 23.7188 37.0312H24.3125C24.75 37.0312 25.1562 37.0104 25.5312 36.9688C25.9896 37.4896 26.7708 38.1667 27.875 39C28.9792 39.8333 30 40.3333 30.9375 40.5H31.125C31.3125 40.5 31.4688 40.4375 31.5938 40.3125C31.7188 40.1875 31.7812 40.0312 31.7812 39.8438C31.7812 39.7604 31.7604 39.6771 31.7188 39.5938C31.6146 39.4271 31.5 39.1771 31.375 38.8438C31.25 38.5104 31.1354 38.1562 31.0312 37.7812C30.9271 37.4062 30.8385 37.0156 30.7656 36.6094C30.6927 36.2031 30.6562 35.8438 30.6562 35.5312V35.4688C33.5521 33.9688 35 31.75 35 28.8125Z" fill="black"/>
<path d="M49.536 23.744V24.74H47.568V23.744H49.536ZM47.568 26.972V25.988H49.536V26.972H47.568ZM48.336 29.084C48.564 29.42 48.792 29.792 49.008 30.164L47.568 30.524V28.292H50.856V22.424H46.2V30.836C45.912 30.908 45.636 30.968 45.396 31.016L45.804 32.48C46.896 32.18 48.3 31.796 49.656 31.412C49.836 31.796 49.98 32.156 50.064 32.468L51.324 31.832C51.024 30.908 50.232 29.552 49.488 28.544L48.336 29.084ZM56.16 22.4H51.528V33.032H52.98V23.84H54.684V29.6C54.684 29.756 54.636 29.816 54.48 29.816C54.312 29.816 53.82 29.828 53.352 29.792C53.568 30.188 53.796 30.92 53.844 31.352C54.612 31.352 55.176 31.316 55.62 31.052C56.052 30.788 56.16 30.32 56.16 29.648V22.4ZM60.204 23.84V25.952H59.1V23.84H60.204ZM59.1 29.456V27.2H60.204V29.456H59.1ZM61.536 22.568H57.78V31.784H59.1V30.728H61.536V22.568ZM62.244 29.72C62.784 30.332 63.396 31.184 63.612 31.736L64.836 31.028C64.584 30.44 63.936 29.648 63.384 29.06L62.244 29.72ZM68.592 26.648V25.4H65.856V24.344H68.256V23.096H65.856V21.836H64.452V23.096H62.148V24.344H64.452V25.4H61.74V26.648H65.976V27.68H61.764V28.916H65.976V31.496C65.976 31.664 65.916 31.712 65.724 31.712C65.544 31.712 64.872 31.712 64.296 31.688C64.488 32.072 64.704 32.636 64.752 33.032C65.64 33.032 66.288 32.996 66.756 32.792C67.224 32.576 67.356 32.216 67.356 31.532V28.916H68.508V27.68H67.356V26.648H68.592ZM73.128 30.56H75.3V29.552H73.128V29.084H75.252V25.376H73.128V24.908H75.432V25.844H76.524C76.44 27.992 76.152 29.708 75.216 31.004C74.52 31.064 73.812 31.124 73.128 31.172V30.56ZM70.896 28.196V27.656H71.832V28.196H70.896ZM74.064 27.656V28.196H73.128V27.656H74.064ZM73.128 26.804V26.276H74.064V26.804H73.128ZM70.896 26.276H71.832V26.804H70.896V26.276ZM77.916 24.536C77.94 23.744 77.94 22.904 77.94 22.028H76.572C76.572 22.916 76.572 23.744 76.56 24.536H75.432V23.876H73.128V23.288C73.908 23.204 74.652 23.096 75.288 22.964L74.664 21.896C73.344 22.184 71.268 22.388 69.492 22.484C69.624 22.76 69.756 23.204 69.804 23.492C70.452 23.48 71.136 23.444 71.832 23.396V23.876H69.468V24.908H71.832V25.376H69.768V29.084H71.832V29.552H69.72V30.56H71.832V31.28C70.908 31.34 70.068 31.4 69.396 31.448L69.564 32.648C70.86 32.54 72.588 32.36 74.316 32.18C74.628 32.444 74.976 32.84 75.156 33.128C77.172 31.532 77.724 29.06 77.88 25.844H78.96C78.888 29.72 78.768 31.184 78.516 31.508C78.408 31.664 78.288 31.712 78.108 31.712C77.88 31.712 77.424 31.7 76.896 31.652C77.136 32.048 77.292 32.624 77.316 33.02C77.892 33.032 78.444 33.044 78.804 32.972C79.2 32.888 79.476 32.768 79.752 32.372C80.136 31.82 80.232 30.08 80.34 25.172C80.34 25.004 80.352 24.536 80.352 24.536H77.916ZM90.852 25.724C91.848 25.724 92.22 25.412 92.352 24.236C91.992 24.176 91.464 23.984 91.2 23.804C91.164 24.488 91.08 24.596 90.72 24.596H89.304C88.824 24.596 88.764 24.548 88.764 24.224V23.888C89.808 23.672 90.996 23.36 91.896 22.976L90.912 22.124C90.396 22.4 89.58 22.676 88.764 22.892V21.92H87.444V24.224C87.444 25.376 87.768 25.724 89.136 25.724H90.852ZM90.912 29.78C91.92 29.78 92.292 29.444 92.424 28.22C92.076 28.16 91.536 27.968 91.272 27.776C91.224 28.52 91.152 28.64 90.78 28.64H89.316C88.824 28.64 88.764 28.604 88.764 28.244V27.932C89.868 27.716 91.104 27.38 92.028 26.96L91.044 26.108C90.492 26.408 89.628 26.696 88.764 26.924V25.832H87.444V28.256C87.444 29.42 87.768 29.78 89.148 29.78H90.912ZM81.648 24.5C82.848 24.452 84.468 24.404 86.064 24.32C86.16 24.5 86.256 24.668 86.316 24.824L87.384 24.224C87.12 23.648 86.46 22.82 85.86 22.232L84.864 22.76C85.02 22.928 85.188 23.12 85.344 23.312L83.868 23.348C84.144 22.964 84.432 22.532 84.696 22.112L83.292 21.776C83.112 22.244 82.812 22.856 82.512 23.384L81.588 23.396L81.648 24.5ZM82.512 32.828C83.388 32.3 83.916 31.448 84.24 30.56L83.028 30.104C82.752 30.872 82.164 31.604 81.396 32.048L82.512 32.828ZM83.472 27.476V27.032H85.416V27.476H83.472ZM85.416 25.844V26.264H83.472V25.844H85.416ZM85.728 30.02C86.376 30.344 87.132 30.896 87.468 31.304L88.392 30.44C88.008 30.032 87.24 29.54 86.616 29.24C86.676 29.084 86.7 28.892 86.7 28.628V24.92H82.2V29.78H83.472V28.268H85.416V28.628C85.416 28.748 85.368 28.784 85.236 28.796C85.14 28.796 84.732 28.796 84.372 28.784C84.516 29.036 84.684 29.444 84.744 29.756C85.356 29.756 85.836 29.744 86.184 29.6L85.728 30.02ZM86.604 31.784C86.076 31.784 85.968 31.748 85.968 31.436V30.236H84.576V31.448C84.576 32.576 84.948 32.924 86.436 32.924H88.404C89.484 32.924 89.868 32.6 90.012 31.328C89.652 31.256 89.088 31.076 88.812 30.872C88.764 31.664 88.68 31.784 88.248 31.784H86.604ZM89.46 30.62C90.24 31.268 91.068 32.204 91.368 32.852L92.604 32.156C92.244 31.46 91.38 30.596 90.588 29.996L89.46 30.62Z" fill="black"/>
</g>
<defs>
<linearGradient id="paint0_linear" x1="173.5" y1="0" x2="173.5" y2="50" gradientUnits="userSpaceOnUse">
<stop offset="0.0416667" stop-color="#774F00"/>
<stop offset="0.078125" stop-color="#FBA807"/>
<stop offset="0.822917" stop-color="#E39807"/>
<stop offset="1" stop-color="#352300"/>
</linearGradient>
<clipPath id="clip0">
<rect width="375" height="812" fill="white" transform="translate(-18 -208)"/>
</clipPath>
</defs>
</svg>
