<svg width="95" height="50" viewBox="0 0 95 50" fill="none" xmlns="http://www.w3.org/2000/svg">
<g clip-path="url(#clip0)">
<rect x="-126" width="357" height="50" fill="url(#paint0_linear)"/>
<path d="M23.0674 31.8389L23.171 31.4251L22.8684 31.1246C20.9019 29.1714 19.75 26.7209 19.75 24.0714C19.75 17.9613 25.9687 12.75 34 12.75C42.0313 12.75 48.25 17.9613 48.25 24.0714C48.25 30.1816 42.0313 35.3929 34 35.3929C31.8418 35.3929 29.8034 34.9976 27.9689 34.3142L27.5736 34.1669L27.2424 34.4282C25.947 35.4505 23.438 37.0452 20.112 37.232C20.3724 36.9199 20.7193 36.4805 21.0871 35.9499C21.8176 34.896 22.6696 33.4273 23.0674 31.8389ZM19.6683 37.7374C19.6704 37.7353 19.6727 37.7329 19.6752 37.7303C19.673 37.7327 19.6707 37.7351 19.6684 37.7375L19.6683 37.7374ZM23.875 24.0714C23.875 25.5196 25.0555 26.6786 26.5 26.6786C27.9445 26.6786 29.125 25.5196 29.125 24.0714C29.125 22.6232 27.9445 21.4643 26.5 21.4643C25.0555 21.4643 23.875 22.6232 23.875 24.0714ZM31.375 24.0714C31.375 25.5196 32.5555 26.6786 34 26.6786C35.4445 26.6786 36.625 25.5196 36.625 24.0714C36.625 22.6232 35.4445 21.4643 34 21.4643C32.5555 21.4643 31.375 22.6232 31.375 24.0714ZM38.875 24.0714C38.875 25.5196 40.0555 26.6786 41.5 26.6786C42.9445 26.6786 44.125 25.5196 44.125 24.0714C44.125 22.6232 42.9445 21.4643 41.5 21.4643C40.0555 21.4643 38.875 22.6232 38.875 24.0714Z" stroke="black" stroke-width="1.5"/>
<path d="M57.036 22.836H56.196V21.54H57.036V22.836ZM56.196 27.888V26.436H57.036V27.732L56.196 27.888ZM57.036 25.284H56.196V23.988H57.036V25.284ZM58.74 21.54V20.292H54.54V21.54H55.032V28.08C54.78 28.128 54.552 28.164 54.336 28.188L54.6 29.484C55.32 29.328 56.172 29.16 57.036 28.98V31.044H58.224V21.54H58.74ZM60.084 22.032C60.66 21.684 61.416 21.156 62.028 20.664L61.068 19.848C60.66 20.268 60 20.82 59.46 21.192L58.992 21.012V27.228C58.74 27.288 58.512 27.336 58.308 27.372L58.728 28.572C59.256 28.392 59.844 28.2 60.432 27.996C60.168 28.848 59.64 29.592 58.608 30.204C58.872 30.396 59.244 30.804 59.412 31.056C61.524 29.796 61.8 27.9 61.8 25.86V22.104H60.696V25.848C60.696 26.196 60.684 26.532 60.66 26.856L60.084 26.988V22.032ZM65.256 20.736H62.328V31.044H63.456V21.876H64.116V27.552C64.116 27.648 64.092 27.684 64.008 27.684C63.936 27.684 63.756 27.684 63.564 27.672C63.72 27.984 63.864 28.476 63.9 28.788C64.32 28.788 64.644 28.764 64.92 28.572C65.196 28.368 65.256 28.056 65.256 27.576V20.736ZM76.992 25.764V24.3H72.648V23.952V22.104H77.316V20.628H66.684V22.104H71.136V23.952C71.136 24.072 71.136 24.18 71.136 24.3H67.056V25.764H70.932C70.536 27.324 69.408 28.896 66.36 29.784C66.66 30.084 67.092 30.696 67.248 31.068C70.068 30.204 71.436 28.776 72.084 27.228C73.008 29.136 74.412 30.42 76.716 31.056C76.932 30.636 77.364 29.988 77.7 29.664C75.24 29.112 73.788 27.756 72.996 25.764H76.992Z" fill="black"/>
</g>
<defs>
<linearGradient id="paint0_linear" x1="52.5" y1="0" x2="52.5" y2="50" gradientUnits="userSpaceOnUse">
<stop offset="0.0416667" stop-color="#774F00"/>
<stop offset="0.078125" stop-color="#FBA807"/>
<stop offset="0.822917" stop-color="#E39807"/>
<stop offset="1" stop-color="#352300"/>
</linearGradient>
<clipPath id="clip0">
<rect width="375" height="812" fill="white" transform="translate(-139 -208)"/>
</clipPath>
</defs>
</svg>
