<svg width="95" height="35" viewBox="0 0 95 35" fill="none" xmlns="http://www.w3.org/2000/svg">
<path d="M24.0674 23.8389L24.171 23.4251L23.8684 23.1246C21.9019 21.1714 20.75 18.7209 20.75 16.0714C20.75 9.96126 26.9687 4.75 35 4.75C43.0313 4.75 49.25 9.96126 49.25 16.0714C49.25 22.1816 43.0313 27.3929 35 27.3929C32.8418 27.3929 30.8034 26.9976 28.9689 26.3142L28.5736 26.1669L28.2424 26.4282C26.947 27.4505 24.438 29.0452 21.112 29.232C21.3724 28.9199 21.7193 28.4805 22.0871 27.9499C22.8176 26.896 23.6696 25.4273 24.0674 23.8389ZM20.6683 29.7374C20.6704 29.7353 20.6727 29.7329 20.6752 29.7303C20.673 29.7327 20.6707 29.7351 20.6684 29.7375L20.6683 29.7374ZM24.875 16.0714C24.875 17.5196 26.0555 18.6786 27.5 18.6786C28.9445 18.6786 30.125 17.5196 30.125 16.0714C30.125 14.6232 28.9445 13.4643 27.5 13.4643C26.0555 13.4643 24.875 14.6232 24.875 16.0714ZM32.375 16.0714C32.375 17.5196 33.5555 18.6786 35 18.6786C36.4445 18.6786 37.625 17.5196 37.625 16.0714C37.625 14.6232 36.4445 13.4643 35 13.4643C33.5555 13.4643 32.375 14.6232 32.375 16.0714ZM39.875 16.0714C39.875 17.5196 41.0555 18.6786 42.5 18.6786C43.9445 18.6786 45.125 17.5196 45.125 16.0714C45.125 14.6232 43.9445 13.4643 42.5 13.4643C41.0555 13.4643 39.875 14.6232 39.875 16.0714Z" stroke="white" stroke-width="1.5"/>
<path d="M58.036 14.836H57.196V13.54H58.036V14.836ZM57.196 19.888V18.436H58.036V19.732L57.196 19.888ZM58.036 17.284H57.196V15.988H58.036V17.284ZM59.74 13.54V12.292H55.54V13.54H56.032V20.08C55.78 20.128 55.552 20.164 55.336 20.188L55.6 21.484C56.32 21.328 57.172 21.16 58.036 20.98V23.044H59.224V13.54H59.74ZM61.084 14.032C61.66 13.684 62.416 13.156 63.028 12.664L62.068 11.848C61.66 12.268 61 12.82 60.46 13.192L59.992 13.012V19.228C59.74 19.288 59.512 19.336 59.308 19.372L59.728 20.572C60.256 20.392 60.844 20.2 61.432 19.996C61.168 20.848 60.64 21.592 59.608 22.204C59.872 22.396 60.244 22.804 60.412 23.056C62.524 21.796 62.8 19.9 62.8 17.86V14.104H61.696V17.848C61.696 18.196 61.684 18.532 61.66 18.856L61.084 18.988V14.032ZM66.256 12.736H63.328V23.044H64.456V13.876H65.116V19.552C65.116 19.648 65.092 19.684 65.008 19.684C64.936 19.684 64.756 19.684 64.564 19.672C64.72 19.984 64.864 20.476 64.9 20.788C65.32 20.788 65.644 20.764 65.92 20.572C66.196 20.368 66.256 20.056 66.256 19.576V12.736ZM77.992 17.764V16.3H73.648V15.952V14.104H78.316V12.628H67.684V14.104H72.136V15.952C72.136 16.072 72.136 16.18 72.136 16.3H68.056V17.764H71.932C71.536 19.324 70.408 20.896 67.36 21.784C67.66 22.084 68.092 22.696 68.248 23.068C71.068 22.204 72.436 20.776 73.084 19.228C74.008 21.136 75.412 22.42 77.716 23.056C77.932 22.636 78.364 21.988 78.7 21.664C76.24 21.112 74.788 19.756 73.996 17.764H77.992Z" fill="white"/>
</svg>
