<svg width="55" height="55" viewBox="0 0 55 55" fill="none" xmlns="http://www.w3.org/2000/svg">
<rect width="375" height="812" transform="translate(-237 -13)" fill="black"/>
<path fill-rule="evenodd" clip-rule="evenodd" d="M-145 14C-150.523 14 -155 18.4772 -155 24V32C-155 37.5229 -150.523 42 -145 42H45C50.5229 42 55 37.5229 55 32V24C55 18.4772 50.5229 14 45 14H-145ZM-111 17C-116.523 17 -121 21.4772 -121 27V30C-121 35.5229 -116.523 40 -111 40H21C26.5229 40 31 35.5229 31 30V27C31 21.4772 26.5229 17 21 17H-111Z" fill="url(#paint0_linear)"/>
<path fill-rule="evenodd" clip-rule="evenodd" d="M-145 14C-150.523 14 -155 18.4772 -155 24V32C-155 37.5229 -150.523 42 -145 42H45C50.5229 42 55 37.5229 55 32V24C55 18.4772 50.5229 14 45 14H-145ZM-111 17C-116.523 17 -121 21.4772 -121 27V30C-121 35.5229 -116.523 40 -111 40H21C26.5229 40 31 35.5229 31 30V27C31 21.4772 26.5229 17 21 17H-111Z" fill="url(#paint1_linear)"/>
<path fill-rule="evenodd" clip-rule="evenodd" d="M-145 14C-150.523 14 -155 18.4772 -155 24V32C-155 37.5229 -150.523 42 -145 42H45C50.5229 42 55 37.5229 55 32V24C55 18.4772 50.5229 14 45 14H-145ZM-111 17C-116.523 17 -121 21.4772 -121 27V30C-121 35.5229 -116.523 40 -111 40H21C26.5229 40 31 35.5229 31 30V27C31 21.4772 26.5229 17 21 17H-111Z" fill="url(#paint2_linear)"/>
<defs>
<linearGradient id="paint0_linear" x1="-21.5" y1="14" x2="-11.5" y2="58" gradientUnits="userSpaceOnUse">
<stop stop-color="#F7C000"/>
<stop offset="0.541667" stop-color="#FFA100"/>
<stop offset="1" stop-color="#BF6700"/>
</linearGradient>
<linearGradient id="paint1_linear" x1="-21.5" y1="14" x2="-11.5" y2="58" gradientUnits="userSpaceOnUse">
<stop stop-color="#F7C000"/>
<stop offset="0.541667" stop-color="#FFA100"/>
<stop offset="1" stop-color="#BF6700"/>
</linearGradient>
<linearGradient id="paint2_linear" x1="-21.5" y1="14" x2="-11.5" y2="58" gradientUnits="userSpaceOnUse">
<stop stop-color="#F7C000"/>
<stop offset="0.541667" stop-color="#FFA100"/>
<stop offset="1" stop-color="#BF6700"/>
</linearGradient>
</defs>
</svg>
